<svg xmlns="http://www.w3.org/2000/svg" width="26" height="24.96" viewBox="0 0 26 24.96">
  <g id="thumbs-up-hand-symbol" transform="translate(0 -9.136)">
    <g id="Grupo_169" data-name="Grupo 169" transform="translate(0 9.136)">
      <path id="Caminho_95" data-name="Caminho 95" d="M154.345,23a3.562,3.562,0,0,0,.894-2.421,3.162,3.162,0,0,0-3.119-3.12h-4.5a4.093,4.093,0,0,1,.13-.39,2.719,2.719,0,0,1,.179-.358q.113-.2.162-.292.292-.552.447-.91a6.639,6.639,0,0,0,.308-.975A5.066,5.066,0,0,0,149,13.3c0-.26,0-.471-.008-.634a6.984,6.984,0,0,0-.081-.731,4.1,4.1,0,0,0-.2-.812,3.786,3.786,0,0,0-.39-.731,2.278,2.278,0,0,0-.65-.658,3.561,3.561,0,0,0-.975-.422,4.853,4.853,0,0,0-1.341-.171,1,1,0,0,0-.731.309,2.821,2.821,0,0,0-.553.812,4.836,4.836,0,0,0-.317.845q-.089.357-.2.991-.147.683-.22.983a5.2,5.2,0,0,1-.284.788,2.49,2.49,0,0,1-.5.78,24.029,24.029,0,0,0-1.641,1.95q-.8,1.04-1.641,1.966t-1.235.959a1.066,1.066,0,0,0-.7.333.981.981,0,0,0-.293.707V30.976a.973.973,0,0,0,.309.723,1.075,1.075,0,0,0,.731.317,11.881,11.881,0,0,1,2.568.715q1.251.422,1.958.642t1.974.471a12.074,12.074,0,0,0,2.34.252h2.1a4.037,4.037,0,0,0,3.2-1.267,3.906,3.906,0,0,0,.8-2.941,3.161,3.161,0,0,0,.877-1.527,3.342,3.342,0,0,0,0-1.9,3.372,3.372,0,0,0,.7-2.226A3.873,3.873,0,0,0,154.345,23Z" transform="translate(-129.239 -9.136)" fill="#63de9a"/>
      <path id="Caminho_96" data-name="Caminho 96" d="M5.72,191.864H1.04a1,1,0,0,0-.731.309A1,1,0,0,0,0,192.9v10.4a1,1,0,0,0,.309.731,1,1,0,0,0,.731.309H5.72a1.054,1.054,0,0,0,1.04-1.04V192.9a1.055,1.055,0,0,0-1.04-1.04Zm-1.869,10.1a1.013,1.013,0,0,1-.731.3,1.04,1.04,0,0,1-.739-1.771,1.029,1.029,0,0,1,1.471,0,1.03,1.03,0,0,1,0,1.471Z" transform="translate(0 -181.464)" fill="#63de9a"/>
    </g>
  </g>
</svg>
