<svg xmlns="http://www.w3.org/2000/svg" width="30.333" height="23.833" viewBox="0 0 30.333 23.833">
  <g id="list-with-dots" transform="translate(0 -54.817)">
    <g id="Grupo_170" data-name="Grupo 170" transform="translate(0 54.817)">
      <path id="Caminho_97" data-name="Caminho 97" d="M3.25,201a3.134,3.134,0,0,0-2.3.948,3.269,3.269,0,0,0,0,4.6,3.135,3.135,0,0,0,2.3.948,3.135,3.135,0,0,0,2.3-.948,3.269,3.269,0,0,0,0-4.6A3.135,3.135,0,0,0,3.25,201Z" transform="translate(0 -192.332)" fill="#6dd9f1"/>
      <path id="Caminho_98" data-name="Caminho 98" d="M3.253,54.817a3.135,3.135,0,0,0-2.3.948,3.27,3.27,0,0,0,0,4.6,3.135,3.135,0,0,0,2.3.948,3.135,3.135,0,0,0,2.3-.948,3.27,3.27,0,0,0,0-4.6A3.134,3.134,0,0,0,3.253,54.817Z" transform="translate(-0.003 -54.817)" fill="#6dd9f1"/>
      <path id="Caminho_99" data-name="Caminho 99" d="M3.253,347.18a3.134,3.134,0,0,0-2.3.947,3.27,3.27,0,0,0,0,4.6,3.135,3.135,0,0,0,2.3.948,3.135,3.135,0,0,0,2.3-.948,3.27,3.27,0,0,0,0-4.6A3.134,3.134,0,0,0,3.253,347.18Z" transform="translate(-0.003 -329.846)" fill="#6dd9f1"/>
      <path id="Caminho_100" data-name="Caminho 100" d="M167.684,73.253a.522.522,0,0,0-.381-.161H146.72a.549.549,0,0,0-.542.541v3.25a.549.549,0,0,0,.542.541H167.3a.549.549,0,0,0,.542-.541v-3.25A.521.521,0,0,0,167.684,73.253Z" transform="translate(-137.511 -72.009)" fill="#6dd9f1"/>
      <path id="Caminho_101" data-name="Caminho 101" d="M167.3,219.271H146.72a.549.549,0,0,0-.542.542v3.25a.549.549,0,0,0,.542.542H167.3a.549.549,0,0,0,.542-.542v-3.25a.549.549,0,0,0-.542-.542Z" transform="translate(-137.511 -209.521)" fill="#6dd9f1"/>
      <path id="Caminho_102" data-name="Caminho 102" d="M167.3,365.447H146.72a.549.549,0,0,0-.542.542v3.25a.549.549,0,0,0,.542.542H167.3a.548.548,0,0,0,.542-.542v-3.25a.549.549,0,0,0-.542-.542Z" transform="translate(-137.511 -347.03)" fill="#6dd9f1"/>
    </g>
  </g>
</svg>
