<svg xmlns="http://www.w3.org/2000/svg" width="23.638" height="24.123" viewBox="0 0 23.638 24.123">
  <g id="Grupo_168" data-name="Grupo 168" transform="translate(-0.292 0)">
    <g id="Grupo_167" data-name="Grupo 167" transform="translate(0.293 0)">
      <path id="Caminho_92" data-name="Caminho 92" d="M6.612,6.575a7.989,7.989,0,0,1,9.813-1.161C15.381,6.446,14.18,7.652,14.18,7.652c-.842,1.01.1,1.592.584,1.577l5.623,0,.539,0h1.633a.542.542,0,0,0,.54-.541V.956a.856.856,0,0,0-1.544-.6s-1.327,1.293-2.243,2.2A11.956,11.956,0,0,0,.3,12.734h4A7.949,7.949,0,0,1,6.612,6.575Z" transform="translate(-0.293 0)" fill="#fdcf67"/>
      <path id="Caminho_93" data-name="Caminho 93" d="M20.091,13.75a7.966,7.966,0,0,1-12.12,7.32c1.042-1.032,2.245-2.239,2.245-2.239.842-1.01-.1-1.592-.584-1.575l-5.623,0-.539,0H1.834a.542.542,0,0,0-.54.54v7.731a.857.857,0,0,0,1.545.6s1.326-1.293,2.243-2.2a11.956,11.956,0,0,0,19.01-10.179l-4,0Z" transform="translate(-0.464 -2.36)" fill="#fdcf67"/>
    </g>
  </g>
</svg>
