<svg xmlns="http://www.w3.org/2000/svg" width="25.12" height="25.12" viewBox="0 0 25.12 25.12">
  <g id="do-not-disturb-rounded-sign" transform="translate(0.5 0.5)">
    <g id="do-not-disturb">
      <path id="Caminho_94" data-name="Caminho 94" d="M12.06,0A12.06,12.06,0,1,0,24.12,12.06,12.1,12.1,0,0,0,12.06,0ZM2.412,12.06A9.676,9.676,0,0,1,12.06,2.412a9.5,9.5,0,0,1,5.909,2.05L4.462,17.969A9.5,9.5,0,0,1,2.412,12.06Zm9.648,9.648a9.5,9.5,0,0,1-5.909-2.05L19.658,6.151a9.5,9.5,0,0,1,2.05,5.909A9.676,9.676,0,0,1,12.06,21.708Z" fill="#f06a47" stroke="#f06a47" stroke-width="1"/>
    </g>
  </g>
</svg>
