<?xml version="1.0"?>
<svg xmlns="http://www.w3.org/2000/svg" xmlns:xlink="http://www.w3.org/1999/xlink" version="1.1" id="Layer_1" x="0px" y="0px" viewBox="0 0 512 512" style="enable-background:new 0 0 512 512;" xml:space="preserve" width="512px" height="512px"><g transform="matrix(0.9999 0 0 0.9999 0.0256 0.0256)"><g>
	<g>
		<g>
			<path d="M10.667,213.333h320c5.896,0,10.667-4.771,10.667-10.667c0-5.896-4.771-10.667-10.667-10.667h-320     C4.771,192,0,196.771,0,202.667C0,208.563,4.771,213.333,10.667,213.333z" data-original="#000000" class="active-path" data-old_color="#000000" fill="#04B2D9"/>
			<path d="M501.333,298.667H10.667C4.771,298.667,0,303.438,0,309.333C0,315.229,4.771,320,10.667,320h490.667     c5.896,0,10.667-4.771,10.667-10.667C512,303.438,507.229,298.667,501.333,298.667z" data-original="#000000" class="active-path" data-old_color="#000000" fill="#04B2D9"/>
			<path d="M330.667,405.333h-320C4.771,405.333,0,410.104,0,416c0,5.896,4.771,10.667,10.667,10.667h320     c5.896,0,10.667-4.771,10.667-10.667C341.333,410.104,336.563,405.333,330.667,405.333z" data-original="#000000" class="active-path" data-old_color="#000000" fill="#04B2D9"/>
			<path d="M10.667,106.667h490.667c5.896,0,10.667-4.771,10.667-10.667s-4.771-10.667-10.667-10.667H10.667     C4.771,85.333,0,90.104,0,96S4.771,106.667,10.667,106.667z" data-original="#000000" class="active-path" data-old_color="#000000" fill="#04B2D9"/>
		</g>
	</g>
</g></g> </svg>
