<svg id="Layer_1" data-name="Layer 1" xmlns="http://www.w3.org/2000/svg" xmlns:xlink="http://www.w3.org/1999/xlink" viewBox="0 0 132.32 197.94"><defs><style>.cls-1{fill:none;}.cls-1,.cls-3{stroke:#04b2d9;stroke-miterlimit:10;}.cls-2{clip-path:url(#clip-path);}.cls-3,.cls-4{fill:#04b2d9;}</style><clipPath id="clip-path" transform="translate(18.71 24.68)"><rect class="cls-1" x="14.59" y="14.63" width="65.83" height="65.81" transform="translate(-19.7 47.51) rotate(-45)"/></clipPath></defs><title>logo</title><g id="Grupo_34" data-name="Grupo 34"><g id="Grupo_33" data-name="Grupo 33"><g class="cls-2"><g id="Grupo_32" data-name="Grupo 32"><g id="Grupo_27" data-name="Grupo 27"><g id="Grupo_22" data-name="Grupo 22"><g id="Grupo_19" data-name="Grupo 19"><path id="Caminho_16" data-name="Caminho 16" class="cls-3" d="M47.5,106.83l-65.4-65.4L47.5-24l65.4,65.4Zm-59.89-65.4,59.9,59.9,59.9-59.9-59.9-59.9Z" transform="translate(18.71 24.68)"/></g><g id="Grupo_20" data-name="Grupo 20"><path id="Caminho_17" data-name="Caminho 17" class="cls-3" d="M47.5,94.3-5.37,41.43,47.5-11.44l52.87,52.87ZM.14,41.43,47.5,88.8,94.87,41.43,47.5-5.94Z" transform="translate(18.71 24.68)"/></g><g id="Grupo_21" data-name="Grupo 21"><path id="Caminho_18" data-name="Caminho 18" class="cls-3" d="M47.51,82.07,6.87,41.43,47.51.79,88.14,41.43ZM12.37,41.43,47.51,76.57,82.65,41.43,47.51,6.29Z" transform="translate(18.71 24.68)"/></g></g><g id="Grupo_26" data-name="Grupo 26"><g id="Grupo_23" data-name="Grupo 23"><path id="Caminho_19" data-name="Caminho 19" class="cls-3" d="M47.4,172.55-18,107.15l65.4-65.4,65.4,65.4Zm-59.9-65.4,59.9,59.9,59.9-59.9L47.4,47.25Z" transform="translate(18.71 24.68)"/></g><g id="Grupo_24" data-name="Grupo 24"><path id="Caminho_20" data-name="Caminho 20" class="cls-3" d="M47.4,160-5.47,107.16,47.4,54.29l52.87,52.87ZM0,107.16,47.4,154.52l47.37-47.36L47.4,59.79Z" transform="translate(18.71 24.68)"/></g><g id="Grupo_25" data-name="Grupo 25"><path id="Caminho_21" data-name="Caminho 21" class="cls-3" d="M47.4,147.79,6.76,107.15,47.4,66.52,88,107.15ZM12.26,107.15,47.4,142.29l35.14-35.14L47.4,72Z" transform="translate(18.71 24.68)"/></g></g></g><g id="Grupo_28" data-name="Grupo 28"><rect id="Retângulo_13" data-name="Retângulo 13" class="cls-3" x="33.94" y="61.41" width="3.56" height="36.81" transform="translate(-27.27 73.32) rotate(-45)"/></g><g id="Grupo_29" data-name="Grupo 29"><rect id="Retângulo_14" data-name="Retângulo 14" class="cls-3" x="84.51" y="33.13" width="3.56" height="18.35" transform="translate(14.07 98.09) rotate(-45)"/></g><g id="Grupo_30" data-name="Grupo 30"><rect id="Retângulo_15" data-name="Retângulo 15" class="cls-3" x="41.24" y="76.8" width="38.47" height="3.56" transform="translate(-19.14 90.46) rotate(-45)"/></g><g id="Grupo_31" data-name="Grupo 31"><rect id="Retângulo_16" data-name="Retângulo 16" class="cls-3" x="0.17" y="39.89" width="18.35" height="3.56" transform="translate(-8.02 43.49) rotate(-45)"/></g></g></g><rect class="cls-1" x="14.59" y="14.63" width="65.83" height="65.81" transform="translate(-1 72.19) rotate(-45)"/></g></g><rect id="Retângulo_18" data-name="Retângulo 18" class="cls-4" x="42.22" y="20.65" width="10.38" height="10.38" transform="translate(14.32 65.77) rotate(-45)"/></svg>