<svg xmlns="http://www.w3.org/2000/svg" xmlns:xlink="http://www.w3.org/1999/xlink" width="94.759" height="28.25" viewBox="0 0 94.759 28.25">
  <defs>
    <clipPath id="clip-path">
      <rect id="Retângulo_17" data-name="Retângulo 17" width="19.974" height="19.978" transform="translate(14.127) rotate(45)" fill="#fff"/>
    </clipPath>
  </defs>
  <g id="Grupo_162" data-name="Grupo 162" transform="translate(-105.123 -10)">
    <g id="Grupo_160" data-name="Grupo 160" transform="translate(140.607 16.945)">
      <path id="Caminho_80" data-name="Caminho 80" d="M1513.044-5959.79h3.174v4.576a3.855,3.855,0,0,1-.855,2.69,3.247,3.247,0,0,1-2.525.938,3.247,3.247,0,0,1-2.525-.937,3.854,3.854,0,0,1-.855-2.69v-7.5a3.856,3.856,0,0,1,.855-2.689,3.247,3.247,0,0,1,2.525-.938,3.247,3.247,0,0,1,2.525.938,3.857,3.857,0,0,1,.855,2.689v1.4h-2.143v-1.546a1.533,1.533,0,0,0-.319-1.1,1.157,1.157,0,0,0-.855-.32,1.156,1.156,0,0,0-.855.32,1.531,1.531,0,0,0-.319,1.1v7.791a1.491,1.491,0,0,0,.319,1.092,1.176,1.176,0,0,0,.855.31,1.177,1.177,0,0,0,.855-.31,1.492,1.492,0,0,0,.319-1.092v-2.658h-1.031Z" transform="translate(-1509.458 5966.344)" fill="#161f33"/>
      <path id="Caminho_81" data-name="Caminho 81" d="M1732.853-5962.717a3.77,3.77,0,0,1,.886-2.689,3.349,3.349,0,0,1,2.556-.938,3.349,3.349,0,0,1,2.556.938,3.77,3.77,0,0,1,.886,2.689v7.5a3.768,3.768,0,0,1-.886,2.69,3.349,3.349,0,0,1-2.556.938,3.349,3.349,0,0,1-2.556-.937,3.768,3.768,0,0,1-.886-2.69Zm2.267,7.646a1.532,1.532,0,0,0,.319,1.1,1.154,1.154,0,0,0,.855.32,1.155,1.155,0,0,0,.855-.32,1.533,1.533,0,0,0,.319-1.1v-7.791a1.532,1.532,0,0,0-.319-1.1,1.157,1.157,0,0,0-.855-.32,1.156,1.156,0,0,0-.855.32,1.531,1.531,0,0,0-.319,1.1Z" transform="translate(-1723.99 5966.344)" fill="#161f33"/>
      <path id="Caminho_82" data-name="Caminho 82" d="M1959.364-5962.717a3.77,3.77,0,0,1,.886-2.689,3.35,3.35,0,0,1,2.556-.938,3.35,3.35,0,0,1,2.556.938,3.77,3.77,0,0,1,.886,2.689v7.5a3.768,3.768,0,0,1-.886,2.69,3.349,3.349,0,0,1-2.556.938,3.349,3.349,0,0,1-2.556-.937,3.768,3.768,0,0,1-.886-2.69Zm2.267,7.646a1.531,1.531,0,0,0,.32,1.1,1.154,1.154,0,0,0,.855.32,1.155,1.155,0,0,0,.855-.32,1.534,1.534,0,0,0,.319-1.1v-7.791a1.533,1.533,0,0,0-.319-1.1,1.157,1.157,0,0,0-.855-.32,1.156,1.156,0,0,0-.855.32,1.531,1.531,0,0,0-.32,1.1Z" transform="translate(-1941.515 5966.344)" fill="#161f33"/>
      <path id="Caminho_83" data-name="Caminho 83" d="M2190.55-5962.188h3.586a3.3,3.3,0,0,1,2.545.906,3.8,3.8,0,0,1,.835,2.66v7.3a3.8,3.8,0,0,1-.835,2.659,3.3,3.3,0,0,1-2.545.907h-3.586Zm2.267,2.061v10.3h1.278a1.142,1.142,0,0,0,.845-.309,1.526,1.526,0,0,0,.309-1.092v-7.5a1.524,1.524,0,0,0-.309-1.092,1.143,1.143,0,0,0-.845-.31Z" transform="translate(-2163.53 5962.353)" fill="#161f33"/>
      <path id="Caminho_84" data-name="Caminho 84" d="M2526.865-5955.778h2.927v2.061h-2.927v5.957H2524.6v-14.428h6v2.061h-3.73Z" transform="translate(-2484.325 5962.353)" fill="#fff"/>
      <path id="Caminho_85" data-name="Caminho 85" d="M2724.092-5962.188h2.267v14.428h-2.267Z" transform="translate(-2675.905 5962.353)" fill="#fff"/>
      <path id="Caminho_86" data-name="Caminho 86" d="M2826.952-5962.188h7.008v2.061h-2.37v12.367h-2.267v-12.367h-2.37Z" transform="translate(-2774.685 5962.353)" fill="#fff"/>
    </g>
    <g id="Grupo_161" data-name="Grupo 161" transform="translate(105.123 10)">
      <g id="Grupo_34" data-name="Grupo 34" transform="translate(0)">
        <g id="Grupo_33" data-name="Grupo 33" transform="translate(0 0)">
          <g id="Grupo_32" data-name="Grupo 32" transform="translate(0)" clip-path="url(#clip-path)">
            <g id="Grupo_27" data-name="Grupo 27" transform="translate(-5.753 -7.579)">
              <g id="Grupo_22" data-name="Grupo 22" transform="translate(0.031)">
                <g id="Grupo_19" data-name="Grupo 19">
                  <path id="Caminho_16" data-name="Caminho 16" d="M3747.178-5231.74l-19.849-19.849,19.849-19.849,19.849,19.849ZM3729-5251.589l18.179,18.18,18.179-18.18-18.179-18.179Z" transform="translate(-3727.329 5271.438)" fill="#fff"/>
                </g>
                <g id="Grupo_20" data-name="Grupo 20" transform="translate(3.803 3.803)">
                  <path id="Caminho_17" data-name="Caminho 17" d="M3857.557-5125.164l-16.046-16.046,16.046-16.046,16.046,16.046Zm-14.376-16.046,14.376,14.376,14.376-14.376-14.376-14.377Z" transform="translate(-3841.511 5157.256)" fill="#fff"/>
                </g>
                <g id="Grupo_21" data-name="Grupo 21" transform="translate(7.514 7.514)">
                  <path id="Caminho_18" data-name="Caminho 18" d="M3965.287-5021.146l-12.334-12.334,12.334-12.334,12.334,12.334Zm-10.665-12.334,10.665,10.665,10.665-10.665-10.665-10.665Z" transform="translate(-3952.952 5045.815)" fill="#fff"/>
                </g>
              </g>
              <g id="Grupo_26" data-name="Grupo 26" transform="translate(0 19.948)">
                <g id="Grupo_23" data-name="Grupo 23">
                  <path id="Caminho_19" data-name="Caminho 19" d="M3746.236-4632.789l-19.849-19.849,19.849-19.849,19.849,19.849Zm-18.179-19.849,18.179,18.179,18.179-18.179-18.179-18.179Z" transform="translate(-3726.388 4672.486)" fill="#fff"/>
                </g>
                <g id="Grupo_24" data-name="Grupo 24" transform="translate(3.803 3.803)">
                  <path id="Caminho_20" data-name="Caminho 20" d="M3856.615-4526.212l-16.046-16.046,16.046-16.046,16.046,16.046Zm-14.376-16.046,14.376,14.376,14.377-14.376-14.377-14.376Z" transform="translate(-3840.569 4558.304)" fill="#fff"/>
                </g>
                <g id="Grupo_25" data-name="Grupo 25" transform="translate(7.514 7.514)">
                  <path id="Caminho_21" data-name="Caminho 21" d="M3964.345-4422.194l-12.334-12.334,12.334-12.334,12.334,12.334Zm-10.665-12.334,10.665,10.665,10.665-10.665-10.665-10.665Z" transform="translate(-3952.011 4446.863)" fill="#fff"/>
                </g>
              </g>
            </g>
            <g id="Grupo_28" data-name="Grupo 28" transform="translate(6.22 19.589)">
              <rect id="Retângulo_13" data-name="Retângulo 13" width="1.08" height="11.172" transform="translate(8.663 7.9) rotate(135)" fill="#fff"/>
            </g>
            <g id="Grupo_29" data-name="Grupo 29" transform="translate(23.548 10.185)">
              <rect id="Retângulo_14" data-name="Retângulo 14" width="1.08" height="5.569" transform="translate(4.702 3.938) rotate(135)" fill="#fff"/>
            </g>
            <g id="Grupo_30" data-name="Grupo 30" transform="translate(13.555 19.036)">
              <rect id="Retângulo_15" data-name="Retângulo 15" width="1.08" height="11.675" transform="translate(8.255) rotate(45)" fill="#fff"/>
            </g>
            <g id="Grupo_31" data-name="Grupo 31" transform="translate(0.195 9.993)">
              <rect id="Retângulo_16" data-name="Retângulo 16" width="1.08" height="5.569" transform="translate(3.938) rotate(45)" fill="#fff"/>
            </g>
          </g>
        </g>
      </g>
      <rect id="Retângulo_18" data-name="Retângulo 18" width="3.085" height="3.085" transform="translate(14.125 5.403) rotate(45)" fill="#fff"/>
    </g>
  </g>
</svg>
