<svg xmlns="http://www.w3.org/2000/svg" width="34" height="33.999" viewBox="0 0 34 33.999"><defs><style>.a{fill:#04b2d9;}</style></defs><g transform="translate(0 -0.008)"><path class="a" d="M291.853,210.133H278.394a1.062,1.062,0,0,1,0-2.125h13.458a1.062,1.062,0,1,1,0,2.125Zm0,0" transform="translate(-258.916 -194.188)"/><path class="a" d="M401.066,140.722a1.063,1.063,0,0,1-.751-1.815l4.562-4.561-4.562-4.562a1.063,1.063,0,0,1,1.5-1.5l5.312,5.312a1.063,1.063,0,0,1,0,1.5l-5.312,5.312A1.056,1.056,0,0,1,401.066,140.722Zm0,0" transform="translate(-373.442 -119.465)"/><path class="a" d="M11.333,34.007a2.919,2.919,0,0,1-.878-.132l-8.525-2.84A2.859,2.859,0,0,1,0,28.341V2.841A2.836,2.836,0,0,1,2.833.008,2.922,2.922,0,0,1,3.711.14l8.525,2.84a2.859,2.859,0,0,1,1.929,2.694v25.5a2.836,2.836,0,0,1-2.833,2.833ZM2.833,2.133a.71.71,0,0,0-.708.708v25.5a.736.736,0,0,0,.492.683L11.1,31.851a.77.77,0,0,0,.231.031.71.71,0,0,0,.708-.708V5.674a.736.736,0,0,0-.492-.683L3.064,2.164a.769.769,0,0,0-.231-.031Zm0,0" transform="translate(0 0)"/><path class="a" d="M46.5,11.341a1.063,1.063,0,0,1-1.062-1.062V3.9a1.773,1.773,0,0,0-1.771-1.771H27.73a1.062,1.062,0,0,1,0-2.125H43.667a3.9,3.9,0,0,1,3.9,3.9v6.375A1.063,1.063,0,0,1,46.5,11.341Zm0,0" transform="translate(-24.897)"/><path class="a" d="M188.061,288.673h-5.667a1.062,1.062,0,1,1,0-2.125h5.667a1.773,1.773,0,0,0,1.771-1.771V278.4a1.062,1.062,0,1,1,2.125,0v6.375A3.9,3.9,0,0,1,188.061,288.673Zm0,0" transform="translate(-169.291 -258.916)"/></g></svg>