<svg xmlns="http://www.w3.org/2000/svg" width="27.5" height="40.327" viewBox="0 0 27.5 40.327">
  <g id="Grupo_149" data-name="Grupo 149" transform="translate(-144.292 -92.184)">
    <g id="Grupo_148" data-name="Grupo 148" transform="translate(144.292 92.184)">
      <path id="Caminho_67" data-name="Caminho 67" d="M168.9,114.9l-5.364-2.384a1.051,1.051,0,0,1-.624-.96v-1.473a7.818,7.818,0,0,0,2.96-6.125v-2.074a1.913,1.913,0,0,0,.987-1.672v-.2a7.839,7.839,0,0,0-7.83-7.83h-1.973a7.839,7.839,0,0,0-7.83,7.83v1.826a1.936,1.936,0,0,0,.737,1.551,1.8,1.8,0,0,0,.25.162v.408a7.817,7.817,0,0,0,2.96,6.124v1.473a1.051,1.051,0,0,1-.624.96l-5.364,2.384a4.874,4.874,0,0,0-2.892,4.45v12.235a.923.923,0,0,0,1.846,0V119.352a3.019,3.019,0,0,1,.019-.318l2.472,2.472a2.024,2.024,0,0,1,.6,1.44v8.641a.923.923,0,0,0,1.846,0v-8.641a3.857,3.857,0,0,0-1.137-2.746l-2.947-2.947a3.016,3.016,0,0,1,.946-.665l5.274-2.344,3.911,3.911v13.431a.923.923,0,0,0,1.846,0V118.156l3.911-3.911,5.274,2.344a3.014,3.014,0,0,1,.946.665L166.15,120.2a3.858,3.858,0,0,0-1.137,2.746v8.641a.923.923,0,0,0,1.846,0v-8.641a2.024,2.024,0,0,1,.6-1.44l2.472-2.472a3.014,3.014,0,0,1,.019.317v12.235a.923.923,0,0,0,1.846,0V119.352A4.875,4.875,0,0,0,168.9,114.9Zm-10.858,1.566-3.432-3.432a2.891,2.891,0,0,0,.408-1.478v-.376a7.823,7.823,0,0,0,6.047,0v.376a2.891,2.891,0,0,0,.408,1.479Zm0-6.524a5.99,5.99,0,0,1-5.984-5.983v-.415a5.458,5.458,0,0,0,1.677-1.088.923.923,0,0,0-1.252-1.357,3.316,3.316,0,0,1-1.371.819l-.024,0a.187.187,0,0,1-.016-.083v-1.826a5.99,5.99,0,0,1,5.984-5.984h1.973a5.99,5.99,0,0,1,5.984,5.984v.2a.059.059,0,0,1-.042.061c-5.528,1.092-8.3-.966-9.236-1.9a.923.923,0,1,0-1.305,1.305c2.867,2.867,7.05,2.918,9.6,2.612v1.668A5.99,5.99,0,0,1,158.042,109.944Z" transform="translate(-144.292 -92.184)" fill="#0468bf"/>
    </g>
  </g>
</svg>
