<svg xmlns="http://www.w3.org/2000/svg" width="38.5" height="38.58" viewBox="0 0 38.5 38.58">
  <g id="Grupo_157" data-name="Grupo 157" transform="translate(-6275.696 4557.958)">
    <path id="Caminho_71" data-name="Caminho 71" d="M6284.219-4554.321a2.523,2.523,0,0,1,1.771.61c.438.375.885.739,1.31,1.127a.468.468,0,0,0,.6.094c.743-.336,1.512-.617,2.255-.954a.674.674,0,0,0,.339-.438c.078-.539.1-1.086.133-1.631a2.447,2.447,0,0,1,2.564-2.444c1.167,0,2.335,0,3.5,0a2.445,2.445,0,0,1,2.565,2.393c.039.544.085,1.088.112,1.633a.473.473,0,0,0,.361.489c.764.287,1.517.605,2.258.946a.467.467,0,0,0,.6-.092c.427-.387.87-.755,1.313-1.123a2.376,2.376,0,0,1,3.328.121q1.332,1.306,2.638,2.638a2.394,2.394,0,0,1,.139,3.3c-.383.47-.8.914-1.168,1.394a.6.6,0,0,0-.075.5c.3.791.628,1.572.972,2.346a.556.556,0,0,0,.369.282c.646.083,1.3.118,1.946.184a2.365,2.365,0,0,1,2.13,2.283c.023,1.318.021,2.638,0,3.957a2.378,2.378,0,0,1-2.185,2.328c-.619.059-1.237.125-1.857.155-.259.013-.35.115-.438.347-.29.763-.6,1.518-.938,2.263a.429.429,0,0,0,.063.558c.391.422.757.868,1.128,1.308a2.408,2.408,0,0,1-.121,3.4q-1.277,1.3-2.573,2.573a2.39,2.39,0,0,1-3.4.118c-.417-.352-.842-.7-1.239-1.068a.52.52,0,0,0-.677-.1c-.713.33-1.443.623-2.178.9-.259.1-.394.213-.4.507-.014.53-.072,1.058-.1,1.588a2.453,2.453,0,0,1-2.6,2.451c-1.167,0-2.335,0-3.5,0a2.439,2.439,0,0,1-2.526-2.387c-.038-.544-.091-1.088-.114-1.633a.511.511,0,0,0-.393-.52q-1.124-.425-2.219-.92a.469.469,0,0,0-.6.089c-.425.388-.869.756-1.313,1.123a2.383,2.383,0,0,1-3.361-.148q-1.293-1.28-2.572-2.574a2.4,2.4,0,0,1-.117-3.4c.372-.44.762-.866,1.111-1.323a.606.606,0,0,0,.078-.5c-.3-.79-.653-1.562-.958-2.352a.408.408,0,0,0-.422-.308c-.62-.037-1.239-.1-1.858-.153a2.383,2.383,0,0,1-2.187-2.374c-.009-1.273-.011-2.547,0-3.821a2.378,2.378,0,0,1,2.181-2.378c.618-.06,1.24-.091,1.855-.173a.61.61,0,0,0,.408-.295q.523-1.156.978-2.343a.605.605,0,0,0-.078-.5c-.36-.468-.762-.9-1.142-1.356a2.393,2.393,0,0,1,.116-3.331c.871-.887,1.757-1.76,2.635-2.64A2.322,2.322,0,0,1,6284.219-4554.321Zm24.617,5.067a3.541,3.541,0,0,0-.344-.5q-1.211-1.233-2.442-2.446c-.4-.4-.625-.411-1.056-.047-.626.527-1.245,1.063-1.871,1.59a1,1,0,0,1-1.324.133q-1.652-.742-3.342-1.4c-.574-.222-.783-.425-.827-1.039q-.089-1.247-.19-2.493a.634.634,0,0,0-.728-.682q-1.75-.007-3.5,0c-.513,0-.722.194-.762.692q-.1,1.223-.187,2.447a1.053,1.053,0,0,1-.845,1.083q-1.687.655-3.341,1.394a1,1,0,0,1-1.322-.154c-.625-.528-1.244-1.064-1.872-1.588-.411-.343-.641-.332-1.023.047q-1.228,1.217-2.444,2.444a.649.649,0,0,0-.039,1.061q.806.957,1.622,1.9a1.035,1.035,0,0,1,.129,1.216q-.746,1.7-1.422,3.428a1.051,1.051,0,0,1-.979.793c-.847.056-1.692.128-2.537.212-.51.05-.66.225-.662.73q-.007,1.751,0,3.5c0,.509.151.688.654.737.86.083,1.721.153,2.583.215a1.027,1.027,0,0,1,.937.784q.662,1.709,1.4,3.39a1.02,1.02,0,0,1-.125,1.29c-.536.638-1.083,1.268-1.618,1.907a.631.631,0,0,0,.048,1.024q1.217,1.227,2.443,2.444c.4.4.622.4,1.057.039.6-.508,1.2-1.022,1.8-1.532.561-.476.779-.456,1.432-.16,1.059.479,2.136.92,3.223,1.329.647.243.854.447.9,1.134q.086,1.225.189,2.447c.039.461.243.667.69.67q1.8.012,3.593,0a.623.623,0,0,0,.7-.658q.105-1.245.188-2.493c.043-.636.251-.849.845-1.078q1.69-.65,3.345-1.387a1,1,0,0,1,1.322.153c.626.527,1.245,1.063,1.873,1.588.413.344.64.333,1.022-.045q1.229-1.216,2.445-2.443c.381-.384.389-.643.036-1.063-.517-.615-1.041-1.224-1.56-1.837a1.04,1.04,0,0,1-.144-1.363q.727-1.633,1.361-3.307c.218-.574.379-.777.985-.836.845-.082,1.692-.131,2.537-.212.529-.051.672-.224.673-.767q0-1.728,0-3.457c0-.532-.146-.7-.69-.751q-1.267-.125-2.537-.214a1.024,1.024,0,0,1-.948-.769q-.673-1.729-1.414-3.432a1.006,1.006,0,0,1,.139-1.249c.528-.626,1.066-1.243,1.588-1.874A4.4,4.4,0,0,0,6308.836-4549.253Z" fill="#04b2d9"/>
    <path id="Caminho_72" data-name="Caminho 72" d="M6346.013-4474.771a10.527,10.527,0,0,1,10.343-10.445c.4,0,.769.1.909.466a1.368,1.368,0,0,1,0,.894c-.139.371-.516.459-.908.469a8.279,8.279,0,0,0-6.138,2.725,8.236,8.236,0,0,0-1.861,8.731,8.208,8.208,0,0,0,6.824,5.7,8.605,8.605,0,0,0,9.955-8.353c.02-.693.38-1.1.951-1.079.544.022.876.447.871,1.113a10.477,10.477,0,0,1-9.326,10.184,10.457,10.457,0,0,1-11.471-8.779C6346.075-4473.679,6346.062-4474.228,6346.013-4474.771Z" transform="translate(-61.787 -63.918)" fill="#04b2d9"/>
    <path id="Caminho_73" data-name="Caminho 73" d="M6376.241-4447.992a6.967,6.967,0,0,1,6.314-7.228,6.83,6.83,0,0,1,7.258,5.908,6.825,6.825,0,0,1-6.266,7.709c-.121.009-.242.013-.363.012a.927.927,0,0,1-1.028-.91.911.911,0,0,1,.982-.907,4.955,4.955,0,0,0,3.933-2.036,4.939,4.939,0,0,0,.188-5.669,5.009,5.009,0,0,0-5.243-2.191,5,5,0,0,0-3.881,4.093,4.874,4.874,0,0,0,1.3,4.227.926.926,0,0,1-.381,1.63.968.968,0,0,1-.958-.389A6.583,6.583,0,0,1,6376.241-4447.992Z" transform="translate(-88.348 -90.262)" fill="#04b2d9"/>
    <path id="Caminho_74" data-name="Caminho 74" d="M6406.252-4422.011a3.189,3.189,0,0,1,3.179-3.181,3.189,3.189,0,0,1,3.183,3.178,3.2,3.2,0,0,1-3.181,3.184A3.192,3.192,0,0,1,6406.252-4422.011Zm4.542-.006a1.39,1.39,0,0,0-1.368-1.355,1.376,1.376,0,0,0-1.354,1.365,1.393,1.393,0,0,0,1.366,1.358A1.385,1.385,0,0,0,6410.794-4422.017Z" transform="translate(-114.718 -116.66)" fill="#04b2d9"/>
    <path id="Caminho_75" data-name="Caminho 75" d="M6469.757-4470.982a.913.913,0,0,1-.517.923.783.783,0,0,1-.968-.14,12.684,12.684,0,0,0-2.491-2.171.837.837,0,0,1-.18-1.179.848.848,0,0,1,1.113-.326,9.106,9.106,0,0,1,2.9,2.509A1.235,1.235,0,0,1,6469.757-4470.982Z" transform="translate(-166.725 -73.798)" fill="#04b2d9"/>
  </g>
</svg>
