<svg xmlns="http://www.w3.org/2000/svg" width="29.582" height="26" viewBox="0 0 29.582 26">
  <path id="portfolio" d="M28.721,3.467H20.858V2.6a2.6,2.6,0,0,0-2.6-2.6H11.325a2.6,2.6,0,0,0-2.6,2.6v.867H.867A.869.869,0,0,0,0,4.333V23.4A2.6,2.6,0,0,0,2.6,26H26.982a2.6,2.6,0,0,0,2.6-2.6V4.348a.841.841,0,0,0-.861-.881ZM10.458,2.6a.868.868,0,0,1,.867-.867h6.933a.868.868,0,0,1,.867.867v.867H10.458ZM27.513,5.2l-2.691,8.074a.865.865,0,0,1-.822.593H19.125V13a.867.867,0,0,0-.867-.867H11.325a.867.867,0,0,0-.867.867v.867H5.583a.865.865,0,0,1-.822-.593L2.069,5.2ZM17.391,13.867V15.6h-5.2V13.867ZM27.849,23.4a.868.868,0,0,1-.867.867H2.6a.868.868,0,0,1-.867-.867V9.674l1.383,4.148A2.6,2.6,0,0,0,5.583,15.6h4.875v.867a.867.867,0,0,0,.867.867h6.933a.867.867,0,0,0,.867-.867V15.6H24a2.6,2.6,0,0,0,2.466-1.778l1.383-4.148Zm0,0" transform="translate(0)" fill="#04b2d9"/>
</svg>
