<svg xmlns="http://www.w3.org/2000/svg" width="36.156" height="37.827" viewBox="0 0 36.156 37.827">
  <g id="Grupo_156" data-name="Grupo 156" transform="translate(-9.668 0)">
    <g id="Grupo_151" data-name="Grupo 151" transform="translate(9.668 0)">
      <g id="Grupo_150" data-name="Grupo 150" transform="translate(0)">
        <path id="Caminho_68" data-name="Caminho 68" d="M45.536,13.48,40.886,9.6V4.094a.87.87,0,0,0-.9-.838H33.22L30.506.991A4.317,4.317,0,0,0,24.992,1L22.278,3.256H15.424a.87.87,0,0,0-.9.838V9.686L9.962,13.48a.855.855,0,0,0-.294.666h.017V33.5a4.314,4.314,0,0,0,4.3,4.33H41.509a4.314,4.314,0,0,0,4.3-4.33V14.146h.017A.785.785,0,0,0,45.536,13.48Zm-4.65-1.634,2.723,2.264-2.723,2.022ZM26.1,2.322a2.6,2.6,0,0,1,3.31.009l1.1.925H24.983ZM16.254,4.984h22.9V17.421l-9.844,7.329a2.632,2.632,0,0,1-3.12,0l-9.939-7.4V4.984Zm-1.729,6.94v4.14L11.889,14.1ZM44.084,33.489a2.588,2.588,0,0,1-2.567,2.61H13.981a2.586,2.586,0,0,1-2.567-2.6V15.866l13.76,10.276a4.331,4.331,0,0,0,5.151,0l13.76-10.276Z" transform="translate(-9.668 0)" fill="#04b2d9"/>
      </g>
    </g>
    <g id="Grupo_153" data-name="Grupo 153" transform="translate(21.526 11.899)">
      <g id="Grupo_152" data-name="Grupo 152">
        <path id="Caminho_69" data-name="Caminho 69" d="M152.4,137.663h-4.667a.864.864,0,1,0,0,1.729H152.4a.864.864,0,1,0,0-1.729Z" transform="translate(-146.873 -137.663)" fill="#04b2d9"/>
      </g>
    </g>
    <g id="Grupo_155" data-name="Grupo 155" transform="translate(21.526 16.22)">
      <g id="Grupo_154" data-name="Grupo 154">
        <path id="Caminho_70" data-name="Caminho 70" d="M158.454,187.663H147.737a.864.864,0,1,0,0,1.729h10.717a.864.864,0,1,0,0-1.729Z" transform="translate(-146.873 -187.663)" fill="#04b2d9"/>
      </g>
    </g>
  </g>
</svg>
