<svg xmlns="http://www.w3.org/2000/svg" width="33" height="38.92" viewBox="0 0 33 38.92">
  <g id="profiles" transform="translate(-38.937)">
    <g id="Grupo_123" data-name="Grupo 123" transform="translate(38.937)">
      <g id="Grupo_122" data-name="Grupo 122" transform="translate(0)">
        <path id="Caminho_54" data-name="Caminho 54" d="M63.566,0H41.217a2.283,2.283,0,0,0-2.28,2.28v7.754a.76.76,0,1,0,1.52,0V2.28a.761.761,0,0,1,.76-.76H63.566a.761.761,0,0,1,.76.76V30.558a.761.761,0,0,1-.76.76H41.217a.761.761,0,0,1-.76-.76V16.445a.76.76,0,0,0-1.52,0V30.558a2.283,2.283,0,0,0,2.28,2.28H63.566a2.283,2.283,0,0,0,2.28-2.28V2.28A2.283,2.283,0,0,0,63.566,0Z" transform="translate(-38.937)" fill="#0468bf"/>
      </g>
    </g>
    <g id="Grupo_125" data-name="Grupo 125" transform="translate(38.937 12.678)">
      <g id="Grupo_124" data-name="Grupo 124" transform="translate(0)">
        <path id="Caminho_55" data-name="Caminho 55" d="M40.234,167a.76.76,0,1,0,.223.537A.765.765,0,0,0,40.234,167Z" transform="translate(-38.937 -166.78)" fill="#0468bf"/>
      </g>
    </g>
    <g id="Grupo_127" data-name="Grupo 127" transform="translate(41.982 34.363)">
      <g id="Grupo_126" data-name="Grupo 126" transform="translate(0)">
        <path id="Caminho_56" data-name="Caminho 56" d="M80.294,452.283a.76.76,0,1,0,.223.537A.764.764,0,0,0,80.294,452.283Z" transform="translate(-78.996 -452.06)" fill="#0468bf"/>
      </g>
    </g>
    <g id="Grupo_129" data-name="Grupo 129" transform="translate(45.023 3.045)">
      <g id="Grupo_128" data-name="Grupo 128">
        <path id="Caminho_57" data-name="Caminho 57" d="M142.109,40.063a.76.76,0,0,0-.76.76v29.8a.761.761,0,0,1-.76.76H119.76a.76.76,0,1,0,0,1.52h20.828a2.283,2.283,0,0,0,2.28-2.28v-29.8A.76.76,0,0,0,142.109,40.063Z" transform="translate(-119 -40.063)" fill="#0468bf"/>
      </g>
    </g>
    <g id="Grupo_131" data-name="Grupo 131" transform="translate(45.028 6.081)">
      <g id="Grupo_130" data-name="Grupo 130">
        <path id="Caminho_58" data-name="Caminho 58" d="M145.212,80a.76.76,0,0,0-.76.76v29.8a.761.761,0,0,1-.76.76H119.823a.76.76,0,0,0,0,1.52h23.869a2.283,2.283,0,0,0,2.28-2.28V80.76A.76.76,0,0,0,145.212,80Z" transform="translate(-119.063 -80)" fill="#0468bf"/>
      </g>
    </g>
    <g id="Grupo_133" data-name="Grupo 133" transform="translate(43.194 5.625)">
      <g id="Grupo_132" data-name="Grupo 132">
        <path id="Caminho_59" data-name="Caminho 59" d="M102.995,74H95.7a.76.76,0,0,0-.76.76v7.3a.76.76,0,0,0,.76.76h7.3a.76.76,0,0,0,.76-.76v-7.3A.76.76,0,0,0,102.995,74Zm-.76,7.3H96.457V75.52h5.777Z" transform="translate(-94.937 -74)" fill="#0468bf"/>
      </g>
    </g>
    <g id="Grupo_135" data-name="Grupo 135" transform="translate(43.473 17.671)">
      <g id="Grupo_134" data-name="Grupo 134" transform="translate(0)">
        <path id="Caminho_60" data-name="Caminho 60" d="M103.936,232.7a.76.76,0,0,0-1.075,0l-2.021,2.021-.94-.94a.76.76,0,0,0-1.075,1.075l1.477,1.477a.76.76,0,0,0,1.075,0l2.558-2.558A.76.76,0,0,0,103.936,232.7Z" transform="translate(-98.603 -232.474)" fill="#0468bf"/>
      </g>
    </g>
    <g id="Grupo_137" data-name="Grupo 137" transform="translate(51.631 18.928)">
      <g id="Grupo_136" data-name="Grupo 136" transform="translate(0)">
        <path id="Caminho_61" data-name="Caminho 61" d="M215.566,249H206.7a.76.76,0,1,0,0,1.52h8.868a.76.76,0,1,0,0-1.52Z" transform="translate(-205.937 -249)" fill="#0468bf"/>
      </g>
    </g>
    <g id="Grupo_139" data-name="Grupo 139" transform="translate(54.748 5.625)">
      <g id="Grupo_138" data-name="Grupo 138">
        <path id="Caminho_62" data-name="Caminho 62" d="M253.018,74H247.7a.76.76,0,1,0,0,1.52h5.321a.76.76,0,0,0,0-1.52Z" transform="translate(-246.937 -74)" fill="#0468bf"/>
      </g>
    </g>
    <g id="Grupo_141" data-name="Grupo 141" transform="translate(54.748 9.274)">
      <g id="Grupo_140" data-name="Grupo 140">
        <path id="Caminho_63" data-name="Caminho 63" d="M253.018,122H247.7a.76.76,0,0,0,0,1.52h5.321a.76.76,0,0,0,0-1.52Z" transform="translate(-246.937 -122)" fill="#0468bf"/>
      </g>
    </g>
    <g id="Grupo_143" data-name="Grupo 143" transform="translate(54.748 12.923)">
      <g id="Grupo_142" data-name="Grupo 142">
        <path id="Caminho_64" data-name="Caminho 64" d="M253.018,170H247.7a.76.76,0,1,0,0,1.52h5.321a.76.76,0,1,0,0-1.52Z" transform="translate(-246.937 -170)" fill="#0468bf"/>
      </g>
    </g>
    <g id="Grupo_145" data-name="Grupo 145" transform="translate(43.473 23.476)">
      <g id="Grupo_144" data-name="Grupo 144" transform="translate(0)">
        <path id="Caminho_65" data-name="Caminho 65" d="M103.936,309.063a.76.76,0,0,0-1.075,0l-2.021,2.021-.94-.94a.76.76,0,0,0-1.075,1.075L100.3,312.7a.76.76,0,0,0,1.075,0l2.558-2.558A.76.76,0,0,0,103.936,309.063Z" transform="translate(-98.603 -308.841)" fill="#0468bf"/>
      </g>
    </g>
    <g id="Grupo_147" data-name="Grupo 147" transform="translate(51.631 24.705)">
      <g id="Grupo_146" data-name="Grupo 146" transform="translate(0)">
        <path id="Caminho_66" data-name="Caminho 66" d="M215.566,325H206.7a.76.76,0,1,0,0,1.52h8.868a.76.76,0,1,0,0-1.52Z" transform="translate(-205.937 -325)" fill="#0468bf"/>
      </g>
    </g>
  </g>
</svg>
