<svg xmlns="http://www.w3.org/2000/svg" width="61" height="61" viewBox="0 0 61 61">
  <g id="Grupo_68" data-name="Grupo 68" transform="translate(-27 -172)">
    <g id="Elipse_2" data-name="Elipse 2" transform="translate(27 172)" fill="#fff" stroke="#828181" stroke-width="1.6">
      <circle cx="30.5" cy="30.5" r="30.5" stroke="none"/>
      <circle cx="30.5" cy="30.5" r="29.7" fill="none"/>
    </g>
    <g id="avatar" transform="translate(42 184)">
      <g id="Grupo_67" data-name="Grupo 67" transform="translate(0)">
        <path id="Caminho_22" data-name="Caminho 22" d="M144.812,19.6h.241a6.951,6.951,0,0,0,5.311-2.3c2.9-3.269,2.418-8.874,2.365-9.409-.188-4.015-2.087-5.936-3.653-6.832A8.375,8.375,0,0,0,145.023,0h-.128a8.388,8.388,0,0,0-4.053,1.032c-1.582.9-3.51,2.817-3.7,6.863-.053.535-.535,6.139,2.365,9.409A6.923,6.923,0,0,0,144.812,19.6ZM139.155,8.083c0-.023.008-.045.008-.06.249-5.4,4.083-5.981,5.725-5.981h.09c2.034.045,5.491.874,5.725,5.981a.147.147,0,0,0,.008.06c.008.053.535,5.175-1.861,7.872a4.937,4.937,0,0,1-3.879,1.612h-.075a4.921,4.921,0,0,1-3.872-1.612C138.635,13.273,139.147,8.128,139.155,8.083Z" transform="translate(-129.473)" fill="#828181"/>
        <path id="Caminho_23" data-name="Caminho 23" d="M67.013,268.612v-.023c0-.06-.008-.121-.008-.188-.045-1.492-.143-4.979-3.412-6.094l-.075-.023a21.734,21.734,0,0,1-6.252-2.847A1.017,1.017,0,0,0,56.1,261.1a23.463,23.463,0,0,0,6.878,3.141c1.755.625,1.951,2.5,2,4.218a1.511,1.511,0,0,0,.008.188,13.675,13.675,0,0,1-.158,2.328,27.724,27.724,0,0,1-13.281,3.088,27.882,27.882,0,0,1-13.288-3.1,12.945,12.945,0,0,1-.158-2.328c0-.06.008-.121.008-.188.053-1.718.249-3.593,2-4.218a23.678,23.678,0,0,0,6.878-3.141,1.017,1.017,0,1,0-1.168-1.665,21.5,21.5,0,0,1-6.252,2.847c-.03.008-.053.015-.075.023-3.269,1.122-3.367,4.61-3.412,6.094a1.514,1.514,0,0,1-.008.188v.023a11.551,11.551,0,0,0,.384,3.412.967.967,0,0,0,.392.475c.226.151,5.642,3.6,14.7,3.6s14.478-3.458,14.7-3.6a1.008,1.008,0,0,0,.392-.475A12.119,12.119,0,0,0,67.013,268.612Z" transform="translate(-36.073 -239.715)" fill="#828181"/>
      </g>
    </g>
  </g>
</svg>
