<svg xmlns="http://www.w3.org/2000/svg" width="13.243" height="11" viewBox="0 0 13.243 11"><defs><style>.a{fill:#a2a2a2;}</style></defs><g transform="translate(0 -41.674)"><g transform="translate(0 41.674)"><path class="a" d="M12.5,46.135l.021,0H3.658l2.786-2.792a.732.732,0,0,0,0-1.029l-.433-.434a.725.725,0,0,0-1.024,0L.211,46.66a.73.73,0,0,0,0,1.027l4.776,4.776a.726.726,0,0,0,1.024,0l.433-.434a.717.717,0,0,0,.211-.512.7.7,0,0,0-.211-.5L3.626,48.208h8.883a.751.751,0,0,0,.735-.743v-.613A.736.736,0,0,0,12.5,46.135Z" transform="translate(0 -41.674)"/></g></g></svg>