<svg xmlns="http://www.w3.org/2000/svg" width="13.244" height="11" viewBox="0 0 13.244 11"><defs><style>.a{fill:#04b2d9;}</style></defs><g transform="translate(13.244 11) rotate(180)"><g transform="translate(0)"><path class="a" d="M12.5,4.461l.021,0H3.658L6.444,1.674a.732.732,0,0,0,0-1.029L6.01.212a.725.725,0,0,0-1.024,0L.211,4.986a.73.73,0,0,0,0,1.027l4.776,4.776a.726.726,0,0,0,1.024,0l.433-.434a.717.717,0,0,0,.211-.512.7.7,0,0,0-.211-.5L3.626,6.534h8.883a.751.751,0,0,0,.735-.743V5.177A.736.736,0,0,0,12.5,4.461Z" transform="translate(0)"/></g></g></svg>