<svg xmlns="http://www.w3.org/2000/svg" xmlns:xlink="http://www.w3.org/1999/xlink" width="257" height="85" viewBox="0 0 257 85">
  <defs>
    <filter id="Elipse_8" x="48" y="1" width="84" height="84" filterUnits="userSpaceOnUse">
      <feOffset dy="3" input="SourceAlpha"/>
      <feGaussianBlur stdDeviation="3" result="blur"/>
      <feFlood flood-opacity="0.161"/>
      <feComposite operator="in" in2="blur"/>
      <feComposite in="SourceGraphic"/>
    </filter>
    <filter id="Elipse_10" x="0" y="1" width="58" height="58" filterUnits="userSpaceOnUse">
      <feOffset dy="3" input="SourceAlpha"/>
      <feGaussianBlur stdDeviation="3" result="blur-2"/>
      <feFlood flood-opacity="0.161"/>
      <feComposite operator="in" in2="blur-2"/>
      <feComposite in="SourceGraphic"/>
    </filter>
    <filter id="Elipse_9" x="123" y="1" width="84" height="84" filterUnits="userSpaceOnUse">
      <feOffset dy="3" input="SourceAlpha"/>
      <feGaussianBlur stdDeviation="3" result="blur-3"/>
      <feFlood flood-opacity="0.161"/>
      <feComposite operator="in" in2="blur-3"/>
      <feComposite in="SourceGraphic"/>
    </filter>
    <filter id="Elipse_11" x="199" y="1" width="58" height="58" filterUnits="userSpaceOnUse">
      <feOffset dy="3" input="SourceAlpha"/>
      <feGaussianBlur stdDeviation="3" result="blur-4"/>
      <feFlood flood-opacity="0.161"/>
      <feComposite operator="in" in2="blur-4"/>
      <feComposite in="SourceGraphic"/>
    </filter>
  </defs>
  <g id="Grupo_163" data-name="Grupo 163" transform="translate(-52 -338)">
    <g id="Elipse_3" data-name="Elipse 3" transform="translate(109 345)" fill="#fff" stroke="#f2f2f2" stroke-width="7">
      <circle cx="33" cy="33" r="33" stroke="none"/>
      <circle cx="33" cy="33" r="36.5" fill="none"/>
    </g>
    <g transform="matrix(1, 0, 0, 1, 52, 338)" filter="url(#Elipse_8)">
      <circle id="Elipse_8-2" data-name="Elipse 8" cx="33" cy="33" r="33" transform="translate(57 7)" fill="#fff"/>
    </g>
    <g id="Elipse_5" data-name="Elipse 5" transform="translate(184 345)" fill="#fff" stroke="#f2f2f2" stroke-width="7">
      <circle cx="33" cy="33" r="33" stroke="none"/>
      <circle cx="33" cy="33" r="36.5" fill="none"/>
    </g>
    <g id="Elipse_6" data-name="Elipse 6" transform="translate(61 345)" fill="#fdcf67" stroke="#f2f2f2" stroke-width="7">
      <circle cx="20" cy="20" r="20" stroke="none"/>
      <circle cx="20" cy="20" r="23.5" fill="none"/>
    </g>
    <g transform="matrix(1, 0, 0, 1, 52, 338)" filter="url(#Elipse_10)">
      <circle id="Elipse_10-2" data-name="Elipse 10" cx="20" cy="20" r="20" transform="translate(9 7)" fill="#fff"/>
    </g>
    <g id="Elipse_7" data-name="Elipse 7" transform="translate(260 345)" fill="#fff" stroke="#f2f2f2" stroke-width="7">
      <circle cx="20" cy="20" r="20" stroke="none"/>
      <circle cx="20" cy="20" r="23.5" fill="none"/>
    </g>
    <g id="icon" transform="translate(127 363)">
      <g id="x" transform="translate(0)">
        <g id="Grupo_158" data-name="Grupo 158">
          <path id="Caminho_77" data-name="Caminho 77" d="M29.5,23.6,20.644,14.75,29.5,5.9,23.6,0,14.75,8.852,5.9,0,0,5.9,8.848,14.75,0,23.6l5.9,5.9,8.852-8.852L23.6,29.5Z" fill="#f06a47"/>
        </g>
      </g>
    </g>
    <g transform="matrix(1, 0, 0, 1, 52, 338)" filter="url(#Elipse_9)">
      <circle id="Elipse_9-2" data-name="Elipse 9" cx="33" cy="33" r="33" transform="translate(132 7)" fill="#fff"/>
    </g>
    <path id="Caminho_76" data-name="Caminho 76" d="M15.66,55.866a1.837,1.837,0,0,1-1.211-.455c-1.265-1.106-2.485-2.146-3.561-3.063l-.006,0a66.235,66.235,0,0,1-7.776-7.3A11.658,11.658,0,0,1,0,37.413a9.79,9.79,0,0,1,2.485-6.686A8.422,8.422,0,0,1,8.75,28a7.878,7.878,0,0,1,4.921,1.7,10.069,10.069,0,0,1,1.99,2.077A10.068,10.068,0,0,1,17.65,29.7,7.878,7.878,0,0,1,22.571,28a8.423,8.423,0,0,1,6.265,2.727,9.789,9.789,0,0,1,2.484,6.686,11.656,11.656,0,0,1-3.106,7.631,66.226,66.226,0,0,1-7.776,7.3c-1.078.919-2.3,1.96-3.568,3.069A1.838,1.838,0,0,1,15.66,55.866Z" transform="translate(201 336)" fill="#63de9a"/>
    <g transform="matrix(1, 0, 0, 1, 52, 338)" filter="url(#Elipse_11)">
      <circle id="Elipse_11-2" data-name="Elipse 11" cx="20" cy="20" r="20" transform="translate(208 7)" fill="#fff"/>
    </g>
    <g id="Grupo_159" data-name="Grupo 159" transform="translate(70.672 355)">
      <path id="Caminho_79" data-name="Caminho 79" d="M1.328,11.166a.478.478,0,0,1,.478-.477H4.24a.478.478,0,0,1,.478.477,5.86,5.86,0,1,0,5.859-5.859,5.653,5.653,0,0,0-1.021.09V7.055a.478.478,0,0,1-.817.337L5.463,4.1a.475.475,0,0,1,0-.673L8.741.142A.484.484,0,0,1,9.263.035a.484.484,0,0,1,.293.441v1.5a9.154,9.154,0,0,1,1.021-.058,9.253,9.253,0,1,1-9.25,9.252Z" transform="translate(0 0)" fill="#fdcf67"/>
    </g>
    <g id="_34088" data-name="34088" transform="translate(269.999 356)">
      <path id="ShareThis" d="M6.53,9.25c0,.063-.014.123-.018.186l6.629,3.313a3.231,3.231,0,0,1,2.1-.78,3.266,3.266,0,1,1-3.265,3.265c0-.065.014-.123.018-.186L5.361,11.734a3.266,3.266,0,1,1,0-4.97L11.99,3.451c0-.063-.018-.123-.018-.188a3.265,3.265,0,1,1,3.265,3.267,3.228,3.228,0,0,1-2.1-.782L6.512,9.062C6.516,9.125,6.53,9.185,6.53,9.25Z" fill="#6dd9f1"/>
    </g>
  </g>
</svg>
