<svg xmlns="http://www.w3.org/2000/svg" width="9.104" height="9.104" viewBox="0 0 9.104 9.104"><defs><style>.a{fill:#04b2d9;}</style></defs><g transform="translate(0 0)"><path class="a" d="M4.552,0A4.552,4.552,0,1,0,9.1,4.552,4.557,4.557,0,0,0,4.552,0Zm0,8.136A3.583,3.583,0,1,1,8.136,4.552,3.588,3.588,0,0,1,4.552,8.136Z"/><path class="a" d="M46.861,19.665H44.816V17.2a.375.375,0,1,0-.75,0v2.835a.375.375,0,0,0,.375.375h2.421a.375.375,0,1,0,0-.75Z" transform="translate(-39.937 -15.253)"/></g></svg>