<svg width="44" height="39" viewBox="0 0 44 39" fill="none" xmlns="http://www.w3.org/2000/svg">
<path d="M40.9 6.79167H32.175V4.42593V4.42545C32.1723 2.31993 30.4318 0.627584 28.3005 0.625H28.3L15.7 0.625L15.6995 0.625C13.5682 0.627584 11.8277 2.31993 11.825 4.42545V4.42593V6.79167H3.1C1.74078 6.79167 0.625 7.87242 0.625 9.22222L0.624995 24.4743L0.625005 24.4762C0.629817 25.4174 1.18263 26.2585 2.025 26.6594V35.9444C2.025 37.2942 3.14078 38.375 4.5 38.375H39.5C40.8592 38.375 41.975 37.2942 41.975 35.9444V26.66C42.8174 26.2588 43.3706 25.4175 43.375 24.4761V24.4743V9.22222C43.375 7.87242 42.2592 6.79167 40.9 6.79167ZM41.225 24.4743V24.4747C41.2251 24.6228 41.1128 24.7588 40.9472 24.7819C40.947 24.7819 40.9468 24.782 40.9467 24.782L40.754 24.8079L40.7538 24.8079L25.175 26.9108V26.3519C25.175 25.002 24.0592 23.9213 22.7 23.9213H21.3C19.9408 23.9213 18.825 25.002 18.825 26.3519V26.9108L3.05366 24.7819C3.05356 24.7819 3.05346 24.7819 3.05336 24.7819C2.88758 24.759 2.77485 24.6228 2.775 24.4747V24.4743V9.22222C2.775 9.05846 2.91293 8.91204 3.1 8.91204H40.9C41.0871 8.91204 41.225 9.05846 41.225 9.22222V24.4743ZM13.975 4.42593C13.975 3.50538 14.7398 2.74537 15.7 2.74537H28.3C29.2602 2.74537 30.025 3.50538 30.025 4.42593V6.79167H29.375V4.42593C29.375 3.83291 28.8861 3.36574 28.3 3.36574H15.7C15.1139 3.36574 14.625 3.83291 14.625 4.42593V6.79167H13.975V4.42593ZM27.225 6.79167H16.775V5.48611H27.225V6.79167ZM39.825 35.9444C39.825 36.1082 39.6871 36.2546 39.5 36.2546H4.5C4.31293 36.2546 4.175 36.1082 4.175 35.9444V27.0733L18.825 29.051V30.463C18.825 31.8128 19.9408 32.8935 21.3 32.8935H22.7C24.0592 32.8935 25.175 31.8128 25.175 30.463V29.051L39.825 27.0733V35.9444ZM23.025 30.463C23.025 30.6267 22.8871 30.7731 22.7 30.7731H21.3C21.1129 30.7731 20.975 30.6267 20.975 30.463V26.3519C20.975 26.1881 21.1129 26.0417 21.3 26.0417H22.7C22.8871 26.0417 23.025 26.1881 23.025 26.3519V30.463Z" fill="#F2F2F2" stroke="white" stroke-width="0.75"/>
</svg>
